<svg width="604" height="194" viewBox="0 0 604 194" fill="none" xmlns="http://www.w3.org/2000/svg">
<g clip-path="url(#clip0_823_1687)">
<path fill-rule="evenodd" clip-rule="evenodd" d="M86.2129 22.4233C86.3072 22.4233 86.4013 22.4221 86.4952 22.4198C94.4913 22.2198 97.6254 26.6165 96.5782 33.3278C96.4768 33.8884 96.4238 34.4659 96.4238 35.0558C96.4238 40.3815 100.741 44.6989 106.066 44.6989C111.391 44.6989 115.708 40.3815 115.708 35.0558C115.708 29.7837 111.478 25.4998 106.227 25.4139C99.4214 25.252 95.6308 21.4249 97.2041 13.6856C97.3923 12.8685 97.4918 12.0175 97.4918 11.1433C97.4918 4.91351 92.442 -0.136719 86.2129 -0.136719C79.9837 -0.136719 74.934 4.91351 74.934 11.1433C74.934 17.3731 79.9837 22.4233 86.2129 22.4233ZM113.183 15.8756C117.094 15.8756 120.264 12.7053 120.264 8.79449C120.264 4.88369 117.094 1.71335 113.183 1.71335C109.273 1.71335 106.103 4.88369 106.103 8.79449C106.103 12.7053 109.273 15.8756 113.183 15.8756ZM136.125 32.3003C136.197 32.361 136.27 32.4206 136.343 32.4791C142.597 37.4662 142.172 42.8491 137.057 47.317C136.619 47.6813 136.207 48.0896 135.828 48.5415C132.405 52.6212 132.937 58.7037 137.016 62.1271C141.096 65.5504 147.177 65.0182 150.6 60.9385C153.989 56.8998 153.502 50.8987 149.534 47.4572C144.425 42.9583 143.981 37.5898 150.161 32.6726C150.83 32.1677 151.453 31.5797 152.015 30.91C156.019 26.1377 155.397 19.0228 150.625 15.0183C145.853 11.0139 138.739 11.6364 134.735 16.4087C130.731 21.181 131.353 28.2959 136.125 32.3003ZM160.994 44.6224C163.989 47.1362 168.455 46.7454 170.969 43.7496C173.482 40.7537 173.092 36.2873 170.096 33.7734C167.101 31.2596 162.634 31.6504 160.121 34.6462C157.607 37.6421 157.998 42.1086 160.994 44.6224ZM168.06 72.2449C168.053 72.2125 168.047 72.18 168.04 72.1476L168.035 72.1187L168.022 72.0503C168.017 72.0227 168.012 71.9951 168.007 71.9674C166.926 65.8323 171.022 59.9818 177.156 58.9C183.291 57.8183 189.141 61.9148 190.222 68.0499C191.304 74.1851 187.208 80.0355 181.073 81.1173C180.212 81.2691 179.357 81.319 178.52 81.2755C170.626 81.0698 167.515 85.4678 168.538 92.1986C169.365 97.3853 165.881 102.296 160.69 103.211C155.445 104.136 150.444 100.634 149.52 95.389C148.595 90.1442 152.097 85.1427 157.341 84.2179C157.922 84.1154 158.5 84.0673 159.069 84.0698C165.86 83.9359 169.645 80.0856 168.06 72.2449ZM187.341 103.138C183.49 103.817 179.817 101.245 179.138 97.3936C178.459 93.5422 181.03 89.8695 184.882 89.1904C188.733 88.5113 192.405 91.083 193.084 94.9344C193.763 98.7858 191.192 102.458 187.341 103.138ZM166.941 122.844C166.894 122.926 166.848 123.008 166.803 123.09C162.978 130.116 157.604 130.632 152.316 126.369C151.881 126.001 151.407 125.666 150.897 125.371C146.285 122.708 140.388 124.289 137.725 128.901C135.062 133.513 136.643 139.411 141.254 142.074C145.82 144.71 151.644 143.188 154.344 138.683C157.887 132.87 163.097 131.5 169.012 136.732C169.625 137.304 170.312 137.815 171.069 138.253C176.464 141.367 183.362 139.519 186.477 134.124C189.591 128.729 187.743 121.83 182.348 118.715C176.954 115.6 170.056 117.449 166.941 122.844ZM159.126 149.477C157.17 152.864 158.331 157.195 161.717 159.15C165.104 161.105 169.434 159.945 171.389 156.558C173.345 153.171 172.184 148.84 168.798 146.885C165.411 144.93 161.081 146.09 159.126 149.477ZM133.163 161.223C133.251 161.189 133.339 161.156 133.428 161.123C139.281 158.993 145.753 162.011 147.884 167.865C150.014 173.719 146.996 180.192 141.143 182.323C135.289 184.454 128.817 181.435 126.686 175.581C126.387 174.76 126.19 173.926 126.087 173.094C124.919 165.283 120.048 162.983 113.598 165.159C108.634 166.875 103.194 164.296 101.391 159.342C99.5695 154.337 102.15 148.804 107.154 146.982C112.158 145.161 117.691 147.741 119.512 152.746C119.714 153.3 119.862 153.861 119.958 154.422C121.269 161.087 125.718 164.146 133.163 161.223ZM106.091 185.578C104.754 181.903 106.648 177.839 110.323 176.502C113.998 175.164 118.061 177.059 119.398 180.734C120.736 184.409 118.841 188.472 115.166 189.81C111.492 191.147 107.429 189.252 106.091 185.578ZM83.1598 168.911C83.0711 168.879 82.9823 168.848 82.8934 168.818C75.311 166.271 73.8696 161.067 77.1488 155.119C77.4358 154.627 77.6831 154.102 77.8848 153.548C79.7062 148.543 77.126 143.009 72.1219 141.188C67.1178 139.366 61.5847 141.947 59.7634 146.951C57.9604 151.906 60.4706 157.378 65.3756 159.255C71.7152 161.735 73.9685 166.628 69.8433 173.362C69.387 174.066 69.0025 174.831 68.7035 175.653C66.573 181.507 69.5911 187.98 75.4446 190.111C81.2981 192.241 87.7704 189.223 89.9009 183.369C92.0314 177.515 89.0133 171.042 83.1598 168.911ZM55.5769 165.839C51.9023 164.501 47.8392 166.396 46.5018 170.071C45.1643 173.746 47.059 177.809 50.7335 179.147C54.4081 180.484 58.4712 178.59 59.8086 174.915C61.1461 171.24 59.2514 167.176 55.5769 165.839ZM39.4861 142.312C39.535 142.392 39.583 142.473 39.6302 142.555C42.7448 147.95 40.8965 154.849 35.5019 157.963C30.1072 161.078 23.2092 159.23 20.0946 153.835C16.98 148.439 18.8284 141.541 24.223 138.426C24.98 137.989 25.7666 137.649 26.5683 137.404C34.0567 134.897 35.4754 129.7 32.2129 123.725C29.6618 119.134 31.2562 113.328 35.8215 110.692C40.4333 108.029 46.3304 109.61 48.993 114.222C51.6556 118.834 50.0755 124.732 45.4637 127.395C44.9529 127.69 44.4264 127.932 43.8902 128.125C37.555 130.573 35.3147 135.486 39.4861 142.312ZM10.8031 119.877C14.1897 117.922 18.52 119.082 20.4752 122.469C22.4304 125.856 21.2701 130.187 17.8836 132.142C14.4971 134.098 10.1667 132.937 8.21152 129.55C6.25631 126.163 7.41662 121.833 10.8031 119.877ZM23.2106 94.398C23.227 94.305 23.2422 94.2121 23.2562 94.1193C24.4477 86.2091 29.3215 83.8858 35.7483 86.0826C36.2827 86.2799 36.8422 86.4323 37.423 86.5347C42.6673 87.4596 47.6684 83.9575 48.5931 78.7126C49.5178 73.4677 46.016 68.4662 40.7717 67.5414C35.5803 66.6259 30.6272 70.0485 29.6309 75.2054C28.2896 81.88 23.8629 84.9488 16.5151 82.0553C15.7432 81.7281 14.9225 81.4824 14.0616 81.3306C7.92708 80.2488 2.07719 84.3453 0.995503 90.4804C-0.0861791 96.6156 4.00996 102.466 10.1445 103.548C16.279 104.63 22.1289 100.533 23.2106 94.398ZM21.4464 66.6978C22.1254 62.8464 19.554 59.1737 15.703 58.4946C11.852 57.8155 8.17966 60.3871 7.50062 64.2385C6.82159 68.0899 9.39298 71.7626 13.244 72.4417C17.095 73.1208 20.7673 70.5492 21.4464 66.6978ZM41.8415 46.7591C41.7711 46.8212 41.6998 46.8826 41.6275 46.9432C36.8556 50.9476 29.7414 50.3252 25.7374 45.5529C21.7334 40.7806 22.3558 33.6657 27.1276 29.6612C31.8994 25.6568 39.0136 26.2793 43.0177 31.0516C43.5795 31.7213 44.0503 32.4371 44.4313 33.184C48.2003 40.1241 53.5638 40.619 58.8812 36.3682C62.9589 33.0583 68.9529 33.6205 72.3414 37.6591C75.7644 41.7389 75.2323 47.8214 71.1529 51.2447C67.0736 54.6681 60.9917 54.1359 57.5687 50.0561C57.1896 49.6043 56.859 49.1279 56.5763 48.6332C53.0651 42.8188 47.8383 41.4655 41.8415 46.7591ZM58.9523 14.6134C61.4658 17.6093 61.0751 22.0757 58.0795 24.5895C55.084 27.1034 50.618 26.7126 48.1044 23.7167C45.5908 20.7209 45.9815 16.2544 48.9771 13.7406C51.9727 11.2268 56.4387 11.6176 58.9523 14.6134Z" fill="black"/>
<path fill-rule="evenodd" clip-rule="evenodd" d="M86.2129 22.4233C86.3072 22.4233 86.4013 22.4221 86.4952 22.4198C94.4913 22.2198 97.6254 26.6165 96.5782 33.3278C96.4768 33.8884 96.4238 34.4659 96.4238 35.0558C96.4238 40.3815 100.741 44.6989 106.066 44.6989C111.391 44.6989 115.708 40.3815 115.708 35.0558C115.708 29.7837 111.478 25.4998 106.227 25.4139C99.4214 25.252 95.6308 21.4249 97.2041 13.6856C97.3923 12.8685 97.4918 12.0175 97.4918 11.1433C97.4918 4.91351 92.442 -0.136719 86.2129 -0.136719C79.9837 -0.136719 74.934 4.91351 74.934 11.1433C74.934 17.3731 79.9837 22.4233 86.2129 22.4233ZM113.183 15.8756C117.094 15.8756 120.264 12.7053 120.264 8.79449C120.264 4.88369 117.094 1.71335 113.183 1.71335C109.273 1.71335 106.103 4.88369 106.103 8.79449C106.103 12.7053 109.273 15.8756 113.183 15.8756ZM136.125 32.3003C136.197 32.361 136.27 32.4206 136.343 32.4791C142.597 37.4662 142.172 42.8491 137.057 47.317C136.619 47.6813 136.207 48.0896 135.828 48.5415C132.405 52.6212 132.937 58.7037 137.016 62.1271C141.096 65.5504 147.177 65.0182 150.6 60.9385C153.989 56.8998 153.502 50.8987 149.534 47.4572C144.425 42.9583 143.981 37.5898 150.161 32.6726C150.83 32.1677 151.453 31.5797 152.015 30.91C156.019 26.1377 155.397 19.0228 150.625 15.0183C145.853 11.0139 138.739 11.6364 134.735 16.4087C130.731 21.181 131.353 28.2959 136.125 32.3003ZM160.994 44.6224C163.989 47.1362 168.455 46.7454 170.969 43.7496C173.482 40.7537 173.092 36.2873 170.096 33.7734C167.101 31.2596 162.634 31.6504 160.121 34.6462C157.607 37.6421 157.998 42.1086 160.994 44.6224ZM168.06 72.2449C168.053 72.2125 168.047 72.18 168.04 72.1476L168.035 72.1187L168.022 72.0503C168.017 72.0227 168.012 71.9951 168.007 71.9674C166.926 65.8323 171.022 59.9818 177.156 58.9C183.291 57.8183 189.141 61.9148 190.222 68.0499C191.304 74.1851 187.208 80.0355 181.073 81.1173C180.212 81.2691 179.357 81.319 178.52 81.2755C170.626 81.0698 167.515 85.4678 168.538 92.1986C169.365 97.3853 165.881 102.296 160.69 103.211C155.445 104.136 150.444 100.634 149.52 95.389C148.595 90.1442 152.097 85.1427 157.341 84.2179C157.922 84.1154 158.5 84.0673 159.069 84.0698C165.86 83.9359 169.645 80.0856 168.06 72.2449ZM187.341 103.138C183.49 103.817 179.817 101.245 179.138 97.3936C178.459 93.5422 181.03 89.8695 184.882 89.1904C188.733 88.5113 192.405 91.083 193.084 94.9344C193.763 98.7858 191.192 102.458 187.341 103.138ZM166.941 122.844C166.894 122.926 166.848 123.008 166.803 123.09C162.978 130.116 157.604 130.632 152.316 126.369C151.881 126.001 151.407 125.666 150.897 125.371C146.285 122.708 140.388 124.289 137.725 128.901C135.062 133.513 136.643 139.411 141.254 142.074C145.82 144.71 151.644 143.188 154.344 138.683C157.887 132.87 163.097 131.5 169.012 136.732C169.625 137.304 170.312 137.815 171.069 138.253C176.464 141.367 183.362 139.519 186.477 134.124C189.591 128.729 187.743 121.83 182.348 118.715C176.954 115.6 170.056 117.449 166.941 122.844ZM159.126 149.477C157.17 152.864 158.331 157.195 161.717 159.15C165.104 161.105 169.434 159.945 171.389 156.558C173.345 153.171 172.184 148.84 168.798 146.885C165.411 144.93 161.081 146.09 159.126 149.477ZM133.163 161.223C133.251 161.189 133.339 161.156 133.428 161.123C139.281 158.993 145.753 162.011 147.884 167.865C150.014 173.719 146.996 180.192 141.143 182.323C135.289 184.454 128.817 181.435 126.686 175.581C126.387 174.76 126.19 173.926 126.087 173.094C124.919 165.283 120.048 162.983 113.598 165.159C108.634 166.875 103.194 164.296 101.391 159.342C99.5695 154.337 102.15 148.804 107.154 146.982C112.158 145.161 117.691 147.741 119.512 152.746C119.714 153.3 119.862 153.861 119.958 154.422C121.269 161.087 125.718 164.146 133.163 161.223ZM106.091 185.578C104.754 181.903 106.648 177.839 110.323 176.502C113.998 175.164 118.061 177.059 119.398 180.734C120.736 184.409 118.841 188.472 115.166 189.81C111.492 191.147 107.429 189.252 106.091 185.578ZM83.1598 168.911C83.0711 168.879 82.9823 168.848 82.8934 168.818C75.311 166.271 73.8696 161.067 77.1488 155.119C77.4358 154.627 77.6831 154.102 77.8848 153.548C79.7062 148.543 77.126 143.009 72.1219 141.188C67.1178 139.366 61.5847 141.947 59.7634 146.951C57.9604 151.906 60.4706 157.378 65.3756 159.255C71.7152 161.735 73.9685 166.628 69.8433 173.362C69.387 174.066 69.0025 174.831 68.7035 175.653C66.573 181.507 69.5911 187.98 75.4446 190.111C81.2981 192.241 87.7704 189.223 89.9009 183.369C92.0314 177.515 89.0133 171.042 83.1598 168.911ZM55.5769 165.839C51.9023 164.501 47.8392 166.396 46.5018 170.071C45.1643 173.746 47.059 177.809 50.7335 179.147C54.4081 180.484 58.4712 178.59 59.8086 174.915C61.1461 171.24 59.2514 167.176 55.5769 165.839ZM39.4861 142.312C39.535 142.392 39.583 142.473 39.6302 142.555C42.7448 147.95 40.8965 154.849 35.5019 157.963C30.1072 161.078 23.2092 159.23 20.0946 153.835C16.98 148.439 18.8284 141.541 24.223 138.426C24.98 137.989 25.7666 137.649 26.5683 137.404C34.0567 134.897 35.4754 129.7 32.2129 123.725C29.6618 119.134 31.2562 113.328 35.8215 110.692C40.4333 108.029 46.3304 109.61 48.993 114.222C51.6556 118.834 50.0755 124.732 45.4637 127.395C44.9529 127.69 44.4264 127.932 43.8902 128.125C37.555 130.573 35.3147 135.486 39.4861 142.312ZM10.8031 119.877C14.1897 117.922 18.52 119.082 20.4752 122.469C22.4304 125.856 21.2701 130.187 17.8836 132.142C14.4971 134.098 10.1667 132.937 8.21152 129.55C6.25631 126.163 7.41662 121.833 10.8031 119.877ZM23.2106 94.398C23.227 94.305 23.2422 94.2121 23.2562 94.1193C24.4477 86.2091 29.3215 83.8858 35.7483 86.0826C36.2827 86.2799 36.8422 86.4323 37.423 86.5347C42.6673 87.4596 47.6684 83.9575 48.5931 78.7126C49.5178 73.4677 46.016 68.4662 40.7717 67.5414C35.5803 66.6259 30.6272 70.0485 29.6309 75.2054C28.2896 81.88 23.8629 84.9488 16.5151 82.0553C15.7432 81.7281 14.9225 81.4824 14.0616 81.3306C7.92708 80.2488 2.07719 84.3453 0.995503 90.4804C-0.0861791 96.6156 4.00996 102.466 10.1445 103.548C16.279 104.63 22.1289 100.533 23.2106 94.398ZM21.4464 66.6978C22.1254 62.8464 19.554 59.1737 15.703 58.4946C11.852 57.8155 8.17966 60.3871 7.50062 64.2385C6.82159 68.0899 9.39298 71.7626 13.244 72.4417C17.095 73.1208 20.7673 70.5492 21.4464 66.6978ZM41.8415 46.7591C41.7711 46.8212 41.6998 46.8826 41.6275 46.9432C36.8556 50.9476 29.7414 50.3252 25.7374 45.5529C21.7334 40.7806 22.3558 33.6657 27.1276 29.6612C31.8994 25.6568 39.0136 26.2793 43.0177 31.0516C43.5795 31.7213 44.0503 32.4371 44.4313 33.184C48.2003 40.1241 53.5638 40.619 58.8812 36.3682C62.9589 33.0583 68.9529 33.6205 72.3414 37.6591C75.7644 41.7389 75.2323 47.8214 71.1529 51.2447C67.0736 54.6681 60.9917 54.1359 57.5687 50.0561C57.1896 49.6043 56.859 49.1279 56.5763 48.6332C53.0651 42.8188 47.8383 41.4655 41.8415 46.7591ZM58.9523 14.6134C61.4658 17.6093 61.0751 22.0757 58.0795 24.5895C55.084 27.1034 50.618 26.7126 48.1044 23.7167C45.5908 20.7209 45.9815 16.2544 48.9771 13.7406C51.9727 11.2268 56.4387 11.6176 58.9523 14.6134Z" fill="url(#paint0_linear_823_1687)"/>
<path d="M313.409 76.9483V43.9487H326.56V129.188H313.409V120.42C308.416 127.361 301.354 130.771 292.099 130.771C283.697 130.771 276.635 127.726 270.668 121.516C264.701 115.306 261.779 107.634 261.779 98.7451C261.779 89.7341 264.701 82.1844 270.668 75.9741C276.635 69.7639 283.697 66.7196 292.099 66.7196C301.354 66.7196 308.416 70.1292 313.409 76.9483ZM280.409 112.749C284.062 116.402 288.69 118.228 294.169 118.228C299.649 118.228 304.276 116.402 307.929 112.749C311.582 108.974 313.409 104.346 313.409 98.7451C313.409 93.1437 311.582 88.5164 307.929 84.8633C304.276 81.0885 299.649 79.2619 294.169 79.2619C288.69 79.2619 284.062 81.0885 280.409 84.8633C276.756 88.5164 274.93 93.1437 274.93 98.7451C274.93 104.346 276.756 108.974 280.409 112.749ZM373.914 66.7196C387.918 66.7196 397.294 76.2177 397.294 91.8042V129.188H384.143V93.1437C384.143 84.0109 378.907 79.0184 370.505 79.0184C361.25 79.0184 355.04 84.7415 355.04 96.5532V129.188H341.889V68.3026H355.04V76.0959C359.058 69.8856 365.269 66.7196 373.914 66.7196ZM459.675 76.9483V68.3026H472.826V129.188H459.675V120.42C454.683 127.361 447.62 130.771 438.366 130.771C429.964 130.771 422.901 127.726 416.934 121.516C410.967 115.306 408.045 107.634 408.045 98.7451C408.045 89.7341 410.967 82.1844 416.934 75.9741C422.901 69.7639 429.964 66.7196 438.366 66.7196C447.62 66.7196 454.683 70.1292 459.675 76.9483ZM426.676 112.749C430.329 116.402 434.956 118.228 440.436 118.228C445.915 118.228 450.543 116.402 454.196 112.749C457.849 108.974 459.675 104.346 459.675 98.7451C459.675 93.1437 457.849 88.5164 454.196 84.8633C450.543 81.0885 445.915 79.2619 440.436 79.2619C434.956 79.2619 430.329 81.0885 426.676 84.8633C423.023 88.5164 421.196 93.1437 421.196 98.7451C421.196 104.346 423.023 108.974 426.676 112.749ZM522.129 68.3026V80.9667H507.03V110.191C507.03 117.985 512.144 117.863 522.129 117.376V129.188C502.037 131.623 493.878 126.143 493.878 110.191V80.9667H482.676V68.3026H493.878V55.1515L507.03 51.2549V68.3026H522.129ZM590.374 104.346H541.91C543.858 113.601 551.286 118.715 561.393 118.715C568.334 118.715 573.57 116.158 577.101 111.166L587.939 117.498C581.972 126.387 573.083 130.771 561.271 130.771C551.408 130.771 543.371 127.726 537.283 121.76C531.194 115.671 528.15 108 528.15 98.7451C528.15 89.6123 531.194 82.0626 537.161 75.9741C543.128 69.7639 550.921 66.7196 560.297 66.7196C569.186 66.7196 576.492 69.8856 582.216 76.0959C587.939 82.3062 590.861 89.9776 590.861 98.8668C590.861 100.206 590.74 102.033 590.374 104.346ZM541.788 93.6307H577.588C575.762 83.7674 568.821 78.6531 560.175 78.6531C550.434 78.6531 543.615 84.3762 541.788 93.6307Z" fill="black"/>
<path fill-rule="evenodd" clip-rule="evenodd" d="M86.757 22.9221C86.8529 22.9221 86.9485 22.9209 87.0438 22.9186C95.1686 22.7153 98.3531 27.1827 97.289 34.0016C97.186 34.5712 97.1322 35.158 97.1322 35.7573C97.1322 41.1686 101.519 45.5553 106.929 45.5553C112.34 45.5553 116.727 41.1686 116.727 35.7573C116.727 30.4007 112.428 26.048 107.093 25.9607C100.178 25.7962 96.3264 21.9077 97.9251 14.0442C98.1163 13.214 98.2173 12.3493 98.2173 11.4611C98.2173 5.13129 93.0864 0 86.757 0C80.4276 0 75.2967 5.13129 75.2967 11.4611C75.2967 17.7908 80.4276 22.9221 86.757 22.9221ZM114.161 16.2694C118.134 16.2694 121.355 13.0481 121.355 9.07456C121.355 5.10099 118.134 1.87976 114.161 1.87976C110.188 1.87976 106.967 5.10099 106.967 9.07456C106.967 13.0481 110.188 16.2694 114.161 16.2694ZM137.472 32.9571C137.546 33.0187 137.62 33.0793 137.694 33.1388C144.049 38.2059 143.617 43.6752 138.419 48.2148C137.974 48.5849 137.555 48.9998 137.17 49.4589C133.692 53.6042 134.233 59.7843 138.378 63.2626C142.523 66.7408 148.702 66.2001 152.181 62.0549C155.624 57.9514 155.128 51.854 151.097 48.3573C145.906 43.7862 145.455 38.3315 151.734 33.3353C152.414 32.8223 153.047 32.2249 153.618 31.5444C157.686 26.6956 157.054 19.4664 152.205 15.3977C147.357 11.329 140.128 11.9615 136.06 16.8104C131.991 21.6593 132.624 28.8884 137.472 32.9571ZM162.741 45.4769C165.785 48.0311 170.323 47.6341 172.877 44.5901C175.431 41.5462 175.034 37.008 171.99 34.4539C168.946 31.8997 164.408 32.2967 161.854 35.3407C159.3 38.3846 159.697 42.9228 162.741 45.4769ZM169.929 73.5324C169.91 73.4389 169.892 73.3449 169.876 73.2505C168.776 67.0169 172.938 61.0725 179.172 59.9734C185.405 58.8742 191.349 63.0365 192.448 69.2701C193.547 75.5037 189.385 81.4481 183.152 82.5472C182.277 82.7015 181.408 82.7521 180.557 82.708C172.536 82.499 169.376 86.9675 170.415 93.8064C171.255 99.0763 167.715 104.066 162.44 104.996C157.112 105.935 152.03 102.377 151.091 97.048C150.151 91.719 153.709 86.6372 159.038 85.6975C159.628 85.5935 160.215 85.5446 160.794 85.5471C167.694 85.411 171.54 81.499 169.929 73.5324ZM189.52 104.921C185.607 105.611 181.875 102.998 181.185 99.0848C180.496 95.1716 183.108 91.4399 187.021 90.7499C190.934 90.0599 194.666 92.6728 195.356 96.5861C196.045 100.499 193.433 104.231 189.52 104.921ZM168.793 124.946C168.745 125.029 168.699 125.112 168.653 125.196C164.766 132.334 159.306 132.858 153.933 128.527C153.491 128.153 153.01 127.813 152.491 127.514C147.805 124.808 141.813 126.414 139.107 131.1C136.402 135.786 138.007 141.779 142.693 144.484C147.332 147.163 153.251 145.616 155.994 141.039C159.594 135.132 164.887 133.741 170.897 139.057C171.521 139.638 172.219 140.157 172.988 140.602C178.469 143.766 185.478 141.888 188.643 136.407C191.808 130.925 189.93 123.915 184.448 120.75C178.967 117.586 171.958 119.464 168.793 124.946ZM160.852 152.006C158.866 155.447 160.045 159.848 163.486 161.834C166.927 163.821 171.327 162.642 173.313 159.201C175.3 155.76 174.121 151.359 170.68 149.373C167.239 147.386 162.839 148.565 160.852 152.006ZM134.475 163.957C134.563 163.922 134.653 163.888 134.743 163.855C140.691 161.69 147.267 164.757 149.432 170.705C151.596 176.653 148.53 183.23 142.582 185.395C136.635 187.56 130.058 184.493 127.893 178.545C127.59 177.71 127.389 176.863 127.285 176.018C126.098 168.082 121.148 165.745 114.594 167.956C109.551 169.699 104.023 167.079 102.191 162.045C100.34 156.96 102.962 151.338 108.046 149.487C113.131 147.636 118.753 150.258 120.604 155.343C120.809 155.906 120.959 156.476 121.057 157.046C122.389 163.818 126.909 166.927 134.475 163.957ZM106.967 188.702C105.608 184.968 107.533 180.839 111.267 179.48C115 178.121 119.129 180.046 120.488 183.78C121.847 187.514 119.922 191.643 116.188 193.002C112.454 194.361 108.326 192.436 106.967 188.702ZM83.6498 171.761C83.5597 171.728 83.4695 171.697 83.3791 171.666C75.6748 169.078 74.2101 163.791 77.5421 157.747C77.8338 157.247 78.085 156.714 78.29 156.151C80.1406 151.066 77.519 145.444 72.4344 143.593C67.3498 141.742 61.7277 144.364 59.8771 149.449C58.0451 154.483 60.5956 160.043 65.5796 161.95C72.0212 164.47 74.3106 169.441 70.1191 176.284C69.6554 176.998 69.2648 177.776 68.961 178.611C66.7962 184.559 69.8629 191.136 75.8105 193.301C81.7582 195.466 88.3346 192.399 90.4993 186.451C92.6641 180.503 89.5975 173.926 83.6498 171.761ZM55.6232 168.639C51.8895 167.28 47.7611 169.205 46.4021 172.939C45.0432 176.673 46.9683 180.802 50.702 182.161C54.4357 183.52 58.5641 181.595 59.923 177.861C61.282 174.127 59.3569 169.998 55.6232 168.639ZM39.2701 144.738C39.3198 144.82 39.3686 144.902 39.4165 144.985C42.5812 150.467 40.7032 157.476 35.2218 160.641C29.7404 163.806 22.7314 161.928 19.5667 156.446C16.402 150.964 18.2801 143.955 23.7615 140.79C24.5307 140.346 25.33 140.001 26.1445 139.751C33.7534 137.204 35.1949 131.924 31.88 125.853C29.2877 121.188 30.9078 115.289 35.5466 112.611C40.2325 109.905 46.2245 111.511 48.9299 116.197C51.6354 120.883 50.0298 126.876 45.3439 129.581C44.8249 129.881 44.2898 130.128 43.745 130.323C37.308 132.811 35.0317 137.803 39.2701 144.738ZM10.1258 121.944C13.5668 119.957 17.9668 121.136 19.9534 124.577C21.9401 128.018 20.7611 132.418 17.3201 134.405C13.8791 136.392 9.47913 135.213 7.49247 131.772C5.50581 128.331 6.68478 123.93 10.1258 121.944ZM22.7465 96.0401C22.7631 95.9457 22.7786 95.8513 22.7928 95.757C24.0035 87.7198 28.9557 85.3593 35.4858 87.5914C36.0289 87.7918 36.5973 87.9466 37.1875 88.0507C42.5162 88.9904 47.5977 85.4321 48.5373 80.103C49.4769 74.774 45.9188 69.6922 40.5901 68.7525C35.3151 67.8224 30.2825 71.2999 29.27 76.5396C27.9072 83.3213 23.4093 86.4394 15.9433 83.4994C15.159 83.1669 14.3251 82.9172 13.4503 82.763C7.21714 81.6638 1.27315 85.8261 0.174071 92.0597C-0.92501 98.2933 3.23702 104.238 9.47022 105.337C15.7034 106.436 21.6474 102.274 22.7465 96.0401ZM20.9539 67.8954C21.6439 63.9822 19.0311 60.2505 15.1181 59.5605C11.2052 58.8705 7.47379 61.4834 6.78383 65.3966C6.09387 69.3099 8.70662 73.0415 12.6196 73.7315C16.5325 74.4215 20.2639 71.8086 20.9539 67.8954ZM41.6642 47.6433C41.5926 47.7063 41.5202 47.7687 41.4467 47.8304C36.5981 51.899 29.3695 51.2666 25.301 46.4177C21.2326 41.5688 21.865 34.3397 26.7136 30.271C31.5622 26.2023 38.7908 26.8348 42.8593 31.6836C43.4302 32.3641 43.9085 33.0914 44.2957 33.8503C48.1253 40.9018 53.5751 41.4046 58.9779 37.0856C63.1213 33.7226 69.2117 34.2938 72.6547 38.3973C76.1327 42.5425 75.5921 48.7226 71.4471 52.2009C67.3021 55.6792 61.1224 55.1385 57.6443 50.9932C57.2591 50.5341 56.9232 50.05 56.636 49.5474C53.0683 43.6398 47.7575 42.2647 41.6642 47.6433ZM59.0502 14.9816C61.6042 18.0256 61.2072 22.5637 58.1634 25.1179C55.1197 27.6721 50.5818 27.275 48.0278 24.2311C45.4738 21.1872 45.8708 16.649 48.9146 14.0948C51.9583 11.5407 56.4962 11.9377 59.0502 14.9816Z" fill="url(#paint1_linear_823_1687)"/>
</g>
<defs>
<linearGradient id="paint0_linear_823_1687" x1="117.722" y1="82.8787" x2="11.6664" y2="175.319" gradientUnits="userSpaceOnUse">
<stop stop-color="#0179E6"/>
<stop offset="1" stop-color="#0A61B0"/>
</linearGradient>
<linearGradient id="paint1_linear_823_1687" x1="118.78" y1="84.3478" x2="11.0216" y2="178.277" gradientUnits="userSpaceOnUse">
<stop stop-color="#0179E6"/>
<stop offset="1" stop-color="#0A61B0"/>
</linearGradient>
<clipPath id="clip0_823_1687">
<rect width="603.556" height="194" fill="white"/>
</clipPath>
</defs>
</svg>
